<?xml version="1.0" encoding="utf-8"?>
<!-- Generator: Adobe Illustrator 24.1.0, SVG Export Plug-In . SVG Version: 6.00 Build 0)  -->
<svg version="1.1" id="Capa_1" xmlns="http://www.w3.org/2000/svg" xmlns:xlink="http://www.w3.org/1999/xlink" x="0px" y="0px"
	 viewBox="0 0 512 512" style="enable-background:new 0 0 512 512;" xml:space="preserve">
<g>
	<path d="M101,54H71c-16.6,0-30,13.4-30,30h90C131,67.4,117.6,54,101,54z"/>
	<path d="M457,114H356.8l-9.7-29.2C340.9,66.4,323.8,54,304.4,54h-96.8c-19.4,0-36.6,12.4-42.7,30.8l-9.7,29.2H55
		c-30.3,0-55,24.7-55,55v260c0,30.3,24.7,55,55,55h402c30.3,0,55-24.7,55-55V169C512,138.7,487.3,114,457,114z M51,169
		c0-8.3,6.7-15,15-15h30c8.3,0,15,6.7,15,15s-6.7,15-15,15H66C57.7,184,51,177.3,51,169z M256,434c-80,0-145-65-145-145
		s65-145,145-145s145,65,145,145S336,434,256,434z M436,184c-8.3,0-15-6.7-15-15s6.7-15,15-15s15,6.7,15,15S444.3,184,436,184z"/>
	<path d="M256,174c-63.4,0-115,51.6-115,115s51.6,115,115,115s115-51.6,115-115S319.4,174,256,174z M256,369c-44.1,0-80-35.9-80-80
		s35.9-80,80-80s80,35.9,80,80S300.1,369,256,369z"/>
	<circle cx="256" cy="289" r="50"/>
</g>
</svg>
