<?xml version="1.0" encoding="utf-8"?>
<!-- Generator: Adobe Illustrator 24.1.0, SVG Export Plug-In . SVG Version: 6.00 Build 0)  -->
<svg version="1.1" id="Capa_1" xmlns="http://www.w3.org/2000/svg" xmlns:xlink="http://www.w3.org/1999/xlink" x="0px" y="0px"
	 viewBox="0 0 496.5 496.5" style="enable-background:new 0 0 496.5 496.5;" xml:space="preserve">
<style type="text/css">
	.st0{fill:#454545;}
	.st1{fill:#CACACA;}
	.st2{fill:#F3F3F3;}
	.st3{fill:#737373;}
	.st4{fill:#6F6F6F;}
	.st5{fill:#777777;}
</style>
<g>
	<path class="st0" d="M416.6,350.3v47.4c0,8.6,7,15.5,15.5,15.5h34.8c8.6,0,15.5-7,15.5-15.5v-47.4H416.6z"/>
	<path class="st0" d="M14,350.3v47.4c0,8.6,7,15.5,15.5,15.5h34.8c8.6,0,15.5-7,15.5-15.5v-47.4H14z"/>
</g>
<g>
	<path class="st1" d="M485.2,162.8h-17.8c-6.2,0-11.3,5.1-11.3,11.3s-5.1,11.3-11.3,11.3h-9.8l4.5,7.3h45.6
		c6.2,0,11.3-5.1,11.3-11.3v-7.3C496.5,167.8,491.4,162.8,485.2,162.8z"/>
	<path class="st1" d="M51.6,185.3c-6.2,0-11.3-5.1-11.3-11.3s-5.1-11.3-11.3-11.3H11.3c-6.2,0-11.3,5.1-11.3,11.3v7.3
		c0,6.2,5.1,11.3,11.3,11.3h45.6l4.5-7.3L51.6,185.3L51.6,185.3z"/>
</g>
<path class="st2" d="M433.1,166.4c-11.8-40.6-33.2-72.1-77.3-78.2c-48.1-6.6-167.1-6.6-215.2,0c-44,6.1-65.5,37.6-77.3,78.2
	C49.8,213.1,14,210.8,14,268v93.9h468.4V268C482.5,212.5,446.1,210.9,433.1,166.4z"/>
<path class="st1" d="M437.4,194.2c-4.9-7.4-9-15.8-11.7-24.9c-2.5-8.7-5.8-17.5-9.6-26.3c-10.9-24.8-34.4-42.9-61.3-46.8
	c-47.5-6.7-164.6-6.9-213.1,0c-40.9,5.9-60.2,36.4-70.9,73.1c-2.7,9.1-6.7,17.5-11.7,24.9C185,204.1,311.5,204.1,437.4,194.2z"/>
<g>
	<path class="st1" d="M468.8,308.4c0,0-10.5,6.8-52.9,12.1s-45.6,38.2-45.6,38.2h70.7C479.3,347.7,468.8,308.4,468.8,308.4z"/>
	<path class="st1" d="M443.9,215.4c-39.4,16.1-42.1,16.5-67.3,35.1C391,226,427.5,215.3,443.9,215.4z"/>
	<path class="st1" d="M52.6,215.4c51.9,21.2,51.8,23.7,67.3,35.1C105.9,226.6,70.1,215.3,52.6,215.4z"/>
	<polygon class="st1" points="365.4,337.6 357.2,354.3 139.2,354.3 131.1,337.6 	"/>
	<path class="st1" d="M80.6,320.5c-42.4-5.2-52.9-12.1-52.9-12.1s-10.5,39.3,27.8,50.3h70.7C126.1,358.7,123,325.7,80.6,320.5z"/>
</g>
<g>
	<path class="st3" d="M455,242.8c-50.2-4.3-84.3,34.5-84.3,34.5s-7.7,4.5,49.7,10.8c27.4,3,40-6.6,45.6-17.5
		C471.9,259.2,465.6,243.7,455,242.8z"/>
	<path class="st3" d="M126.2,277.3c0,0-34.2-38.8-84.6-34.5c-10.7,0.9-17,16.4-11.1,27.8c5.7,10.9,18.3,20.5,45.8,17.5
		C133.9,281.8,126.2,277.3,126.2,277.3z"/>
</g>
<path class="st4" d="M482.5,361.8v8.9c0,7.2-5.9,13.1-13.1,13.1H27.1c-7.2,0-13.1-5.8-13.1-13.1v-8.9H482.5z"/>
<path class="st5" d="M384.4,298.5c-24.3-27.8-59.4-43.7-96.3-43.7h-79.6c-36.9,0-72,15.9-96.3,43.7c-7.9,9-1.5,23.1,10.5,23.1h251.3
	C385.9,321.7,392.3,307.6,384.4,298.5z"/>
<g>
	<path class="st4" d="M190.3,275.3h115.9c2.6,0,4.8-2.1,4.8-4.8s-2.1-4.8-4.8-4.8H190.3c-2.6,0-4.8,2.1-4.8,4.8
		S187.7,275.3,190.3,275.3z"/>
	<path class="st4" d="M176,293.1h144.5c2.6,0,4.8-2.1,4.8-4.8c0-2.6-2.1-4.8-4.8-4.8H176c-2.6,0-4.8,2.1-4.8,4.8
		C171.2,290.9,173.4,293.1,176,293.1z"/>
	<path class="st4" d="M338.1,301.3H158.4c-2.6,0-4.8,2.1-4.8,4.8c0,2.6,2.1,4.8,4.8,4.8h179.8c2.6,0,4.8-2.1,4.8-4.8
		C342.9,303.4,340.7,301.3,338.1,301.3z"/>
</g>
<g>
	<circle class="st2" cx="442.5" cy="263.2" r="15.7"/>
	<circle class="st2" cx="53.9" cy="263.2" r="15.7"/>
</g>
<path class="st3" d="M263.5,147.8v-35.5c0-5.7,4.7-10.3,10.5-10.3h0.9c5.7-0.4,10.5,4.3,10.5,9.8v34.7c0,6.8,5,12.8,11.6,13.2
	c7.2,0.3,13.2-5.4,13.2-12.5v-25.9c0-5.7,4.7-10.3,10.3-10.3h0.9c6.1,0,11.1,5,11.1,10.9v19.9c0,6.7,5.1,12.8,11.8,13
	c7.1,0.4,13.2-5.2,13.2-12.3v-22.9c0-6,5-10.5,10.9-10.3c0.1,0,0.1,0,0.1,0c0.1,0,0.1,0,0.3,0c6-0.1,10.9,4.4,10.9,10.3v25.3
	c0,6.8,5.1,12.8,11.8,13.2c7.2,0.3,13-5.4,13-12.5v-21.2c-12.4-15-30.1-25.5-49.6-28.3c-47.6-6.8-164.7-6.9-213.1,0
	c-19.5,2.8-37.2,13.3-49.7,28.3v17.3c0,6.7,5.1,12.8,11.9,13c7.1,0.4,13-5.2,13-12.3v-22.9c0-6,5-10.5,11.1-10.3c0,0,0,0,0.1,0
	c0,0,0,0,0.1,0c5.9-0.1,11,4.4,11,10.3v25.3c0,6.8,5,12.8,11.6,13.2c7.1,0.3,12.9-5.2,13.1-12.1v-33.8c0-7.1,5.9-12.8,13.1-12.4
	c6.7,0.4,11.7,6.4,11.7,13.1v32.3c0.2,6.5,5.2,12.3,11.7,12.7c7.2,0.3,13-5.4,13-12.5l0.1-27.5c0-7.1,5.8-12.8,13-12.5
	c6.7,0.4,11.8,6.4,11.8,13.2v29.8c0.1,6.7,5.7,12.1,12.3,12.1C258,160.3,263.5,154.6,263.5,147.8z"/>
</svg>
