<?xml version="1.0" encoding="utf-8"?>
<!-- Generator: Adobe Illustrator 24.1.0, SVG Export Plug-In . SVG Version: 6.00 Build 0)  -->
<svg version="1.1" id="Capa_1" xmlns="http://www.w3.org/2000/svg" xmlns:xlink="http://www.w3.org/1999/xlink" x="0px" y="0px"
	 viewBox="0 0 495.4 495.4" style="enable-background:new 0 0 495.4 495.4;" xml:space="preserve">
<style type="text/css">
	.st0{fill:#777777;}
	.st1{fill:#F3F3F3;}
	.st2{fill:#CACACA;}
	.st3{fill:#737373;}
	.st4{fill:#E5E5E5;}
	.st5{fill:#E8E8E8;}
</style>
<path class="st0" d="M468.6,140.9l-67.1-67.1c-4.5-4.5-11.9-4.5-16.5,0c-4.5,4.5-4.5,11.9,0,16.5l17.5,17.5v74
	c0,6.4,5.2,11.6,11.6,11.6h34.6v131.2c0,43.1-35,78.1-78.1,78.1H360c-6.4,0-11.6,5.2-11.6,11.6c0,6.4,5.2,11.6,11.6,11.6h10.6
	c55.9,0,101.4-45.5,101.4-101.4V149.1C472,146,470.8,143.1,468.6,140.9z M448.7,170.1h-22.9V131l22.9,22.9V170.1z"/>
<path class="st1" d="M366.1,27.5C364.4,11.9,351.1,0,335.3,0H90.4C75.2,0,62.7,10.9,59.9,25.3c-0.3,1.9-0.5,3.7-0.5,5.7v420.3h306.9
	V31C366.3,29.8,366.3,28.7,366.1,27.5z"/>
<rect x="106" y="46.5" class="st2" width="213.8" height="138.7"/>
<rect x="23.4" y="451.3" class="st3" width="379" height="44.1"/>
<rect x="106" y="228.9" class="st2" width="55.1" height="116.9"/>
<path class="st4" d="M366.1,27.5c-0.8,6.1-6.2,10.7-12.7,10.6c-6.5-0.5-11.5-6.4-11.5-13v-2.8c0-5.7-5-10.2-10.7-10.1
	c-0.2,0-0.2,0-0.3,0c0,0,0,0-0.2,0c-5.9-0.2-10.7,4.3-10.7,10.1v0.5c0,7-6.1,12.6-13,12.1c-6.5-0.3-11.5-6.2-11.5-12.9v2.6
	c0-5.6-4.3-10.7-11.6-10.7c-5.6,0-10.2,4.5-10.2,10.1v3.3c0,7-5.9,12.6-13,12.3c-6.5-0.3-11.3-6.2-11.3-12.9V14.6
	c0-5.1-3.6-9.6-11.2-9.6c-5.7,0-10.2,4.5-10.2,10.1v12.7c0,6.8-5.4,12.3-12.3,12.3c-6.7,0-12.1-5.3-12.1-11.8v-7.1
	c0-6.7-5.1-12.6-11.6-12.9c-7.1-0.3-12.9,5.3-12.9,12.3v4.8c0,7-5.7,12.6-12.9,12.3c-6.4-0.3-11.3-6.1-11.5-12.4v-9.6
	c0-6.5-5-12.4-11.5-12.9c-7.1-0.3-12.9,5.3-12.9,12.3v11.2c-0.2,6.8-5.9,12.1-12.9,11.9c-6.5-0.5-11.5-6.4-11.5-13v-2.8
	c0-5.7-5-10.2-10.9-10.1c-0.2,0-0.2,0-0.2,0c-0.2,0-0.2,0-0.2,0c-5.9-0.2-10.9,4.3-10.9,10.1v0.5c0,7-5.7,12.6-12.7,12.1
	c-5.4-0.3-9.9-4.3-11.3-9.5C62.7,10.9,75.2,0,90.4,0h244.8C351.1,0,364.4,11.9,366.1,27.5z"/>
<path class="st4" d="M319.7,46.5H106v40.9c0,4.6,3.5,8.7,8.1,8.9c4.9,0.3,8.9-3.6,8.9-8.4V72.1c0-4.1,3.4-7.2,7.6-7.1c0,0,0,0,0.1,0
	c0,0,0,0,0.1,0c4.1-0.1,7.6,3,7.6,7.1v17.3c0,4.7,3.4,8.7,8,9c4.9,0.2,8.8-3.6,9-8.3V67c0-4.9,4-8.7,9-8.5c4.6,0.3,8,4.4,8,9v22.1
	c0.1,4.5,3.5,8.4,8,8.7c4.9,0.2,8.9-3.7,8.9-8.5l0.1-18.8c0-4.9,4-8.7,8.9-8.5c4.6,0.3,8.1,4.4,8.1,9v20.3c0.1,4.6,3.9,8.3,8.4,8.3
	c4.7,0,8.5-3.9,8.5-8.5V67.2c0-3.9,3.2-7.1,7.2-7.1h0.6c3.9-0.3,7.2,2.9,7.2,6.7v23.7c0,4.7,3.4,8.7,8,9c4.9,0.2,9-3.7,9-8.5V73.3
	c0-3.9,3.2-7.1,7.1-7.1h0.6c4.2,0,7.6,3.4,7.6,7.5v13.6c0,4.6,3.5,8.7,8.1,8.9c4.9,0.3,9-3.6,9-8.4V72.1c0-4.1,3.4-7.2,7.5-7.1
	c0.1,0,0.1,0,0.1,0c0.1,0,0.1,0,0.2,0c4.1-0.1,7.5,3,7.5,7.1v17.3c0,4.7,3.5,8.7,8.1,9c4.9,0.2,8.9-3.7,8.9-8.5L319.7,46.5
	L319.7,46.5z"/>
<path class="st5" d="M59.4,451.3h306.9V415c0-6.5-5-12.5-11.7-12.8c-7-0.4-12.8,5.2-12.8,12.1v0.2c0,5.8-4.9,10.3-10.9,10.2
	c0,0,0,0-0.1,0c0,0,0,0-0.1,0c-5.8,0.1-10.9-4.3-10.9-10.2v-2.6c0-6.7-4.9-12.5-11.4-13c-7-0.3-12.7,5.1-12.9,11.9v10.9
	c0,7-5.8,12.5-12.9,12.2c-6.6-0.4-11.5-6.3-11.5-12.8v-9.4c-0.2-6.4-5.1-12-11.5-12.4c-7.1-0.3-12.8,5.3-12.8,12.3l-0.1,4.7
	c0,7-5.7,12.5-12.8,12.3c-6.5-0.4-11.6-6.3-11.6-13v-7c-0.1-6.5-5.6-11.8-12.1-11.8c-6.8,0-12.3,5.6-12.3,12.3v12.6
	c0,5.3-3.9,10.2-11.1,10.2c-5.6,0.4-10.3-4.2-10.3-9.6v-11.8c0-6.7-4.9-12.5-11.4-13c-7.1-0.3-13,5.3-13,12.3v3.1
	c0,5.3-3.9,10.2-11,10.2c-6,0-10.9-4.9-10.9-10.7v2.7c0-6.5-5-12.5-11.6-12.8c-7-0.4-13,5.2-13,12.1v0.2c0,5.8-4.9,10.3-10.7,10.2
	c-0.1,0-0.1,0-0.1,0c-6.9,0-11-4.8-11-10.2v-2.6c0-6.7-5-12.5-11.6-13c-7.1-0.3-12.8,5.3-12.8,12.3L59.4,451.3L59.4,451.3
	L59.4,451.3z"/>
</svg>
