<?xml version="1.0" encoding="utf-8"?>
<!-- Generator: Adobe Illustrator 24.1.0, SVG Export Plug-In . SVG Version: 6.00 Build 0)  -->
<svg version="1.1" id="Capa_1" xmlns="http://www.w3.org/2000/svg" xmlns:xlink="http://www.w3.org/1999/xlink" x="0px" y="0px"
	 viewBox="0 0 496.5 496.5" style="enable-background:new 0 0 496.5 496.5;" xml:space="preserve">
<style type="text/css">
	.st0{fill:#6F6F6F;}
	.st1{fill:#777777;}
	.st2{fill:#F3F3F3;}
	.st3{fill:#737373;}
	.st4{fill:#E5E5E5;}
</style>
<circle class="st0" cx="248.2" cy="248.2" r="248.2"/>
<path class="st1" d="M437.7,150.5c9.6,0.4,17.2-7.1,17.2-16.5v-23.7C410.4,43.8,334.6,0,248.5,0S86.7,43.8,42.1,110.3v24.9
	c0,8.8,6.7,16.9,15.7,17.2c9.4,0.6,17.2-6.9,17.2-16.3V86.2c0-7.9,6.6-13.9,14.6-13.7c0,0,0,0,0.2,0c0,0,0,0,0.2,0
	c7.9-0.2,14.6,5.8,14.6,13.7v45.9c0,9,6.6,16.9,15.4,17.4c9.4,0.4,17.1-6.9,17.3-16.1V86.6c0-9.4,7.8-16.9,17.3-16.4
	c8.9,0.5,15.5,8.4,15.5,17.3v50.8c0.3,8.6,6.8,16.2,15.5,16.7c9.6,0.4,17.2-7.1,17.2-16.5l0.2-54.7c0-9.4,7.7-16.9,17.2-16.5
	c8.8,0.6,15.5,8.4,15.5,17.4v49.9c0.2,8.8,7.5,15.9,16.3,15.9c9.2,0,16.5-7.5,16.5-16.5V86.8c0-7.5,6.2-13.7,13.9-13.7
	c10.2,0,15,6,15,12.9v50.1c0,9,6.6,16.9,15.4,17.4c9.6,0.4,17.4-7.1,17.4-16.5V88.5c0-7.1,5.3-13.7,14.8-13.7
	c8.1,0,14.6,6.5,14.6,14.4v44.7c0,8.8,6.7,16.9,15.5,17.2c9.4,0.6,17.4-6.9,17.4-16.3V86.2c0-7.2,5.6-13.7,14.6-13.7
	c0.2,0,0.2,0,0.4,0c7.9-0.2,14.4,5.8,14.4,13.7v46.9C422.1,142.1,428.9,150,437.7,150.5z"/>
<circle class="st2" cx="248.2" cy="248.2" r="180.7"/>
<g>
	<path class="st3" d="M267.7,239.5c-4.9-10.9-17.6-15.8-28.5-10.9c-10.9,4.9-15.8,17.6-10.9,28.5c4.9,10.9,17.6,15.8,28.5,10.9
		C267.7,263.2,272.6,250.4,267.7,239.5z M253.1,259.5c-6.2,2.8-13.4,0-16.2-6.2c-2.8-6.2,0-13.4,6.2-16.2c6.2-2.8,13.4,0,16.2,6.2
		C262,249.5,259.2,256.8,253.1,259.5z"/>
	<path class="st3" d="M267.7,239.5c-2.5-5.6-7-9.5-12.3-11.4l88.5-22.5L268,256.4C270.1,251.1,270.2,245.1,267.7,239.5z"/>
</g>
<path class="st4" d="M376.9,135.4c0.2,0,0.2,0,0.3,0c6.4-0.2,11.7,4.7,11.7,11.1v38c0,7.3,5.5,13.7,12.6,14.1
	c7.7,0.3,14-5.8,14-13.4V180c-27-65.9-91.6-112.4-167.3-112.4S107.9,114,81,180v6.2c0,7.1,5.5,13.7,12.8,14c7.6,0.4,14-5.6,14-13.2
	v-40.4c0-6.4,5.3-11.2,11.8-11.1c0,0,0,0,0.2,0c0,0,0,0,0.2,0c6.4-0.2,11.8,4.7,11.8,11.1v37.2c0,7.3,5.3,13.7,12.4,14.1
	c7.6,0.3,13.8-5.6,14.1-13v-38c0-7.6,6.3-13.7,14-13.3c7.2,0.4,12.6,6.8,12.6,14v41.2c0.2,7,5.5,13.1,12.5,13.6
	c7.7,0.3,14-5.8,14-13.4l0.2-44.3c0-7.6,6.2-13.7,14-13.4c7.1,0.4,12.6,6.8,12.6,14.1v40.4c0.2,7.1,6.1,12.9,13.2,12.9
	c7.4,0,13.4-6.1,13.4-13.4v-38.3c0-6.1,5-11.1,11.2-11.1c8.2,0,12.1,4.9,12.1,10.5V187c0,7.3,5.3,13.7,12.5,14.1
	c7.7,0.3,14.1-5.8,14.1-13.4v-39.4c0-5.8,4.3-11.1,12-11.1c6.5,0,11.8,5.3,11.8,11.7v36.2c0,7.1,5.5,13.7,12.6,14
	c7.6,0.5,14.1-5.6,14.1-13.2v-39.4c0-6.4,5.3-11.2,11.7-11.1C376.9,135.4,376.9,135.4,376.9,135.4z"/>
<g>
	<rect x="241.3" y="87.1" class="st1" width="14" height="49.1"/>
	<rect x="356.9" y="237.8" class="st1" width="49.1" height="14"/>
	<rect x="90.5" y="237.8" class="st1" width="49.1" height="14"/>
	
		<rect x="317.9" y="143.6" transform="matrix(0.7071 -0.7071 0.7071 0.7071 -6.2009 286.2461)" class="st1" width="49.1" height="14"/>
	
		<rect x="147.1" y="126.1" transform="matrix(0.7073 -0.7069 0.7069 0.7073 -61.3872 152.9788)" class="st1" width="14" height="49.1"/>
	
		<rect x="286.1" y="109.1" transform="matrix(0.3879 -0.9217 0.9217 0.3879 79.5464 349.5273)" class="st1" width="33.6" height="11.6"/>
	
		<rect x="362" y="185.8" transform="matrix(0.9261 -0.3772 0.3772 0.9261 -44.2953 157.0363)" class="st1" width="33.6" height="11.7"/>
	
		<rect x="100.9" y="292.2" transform="matrix(0.9261 -0.3772 0.3772 0.9261 -103.7208 66.4135)" class="st1" width="33.6" height="11.7"/>
	
		<rect x="372.4" y="282.7" transform="matrix(0.388 -0.9217 0.9217 0.388 -44.5822 531.8586)" class="st1" width="11.6" height="33.6"/>
	
		<rect x="112.4" y="173.3" transform="matrix(0.3876 -0.9218 0.9218 0.3876 -102.809 225.4293)" class="st1" width="11.6" height="33.6"/>
	
		<rect x="189.2" y="97.5" transform="matrix(0.9259 -0.3777 0.3777 0.9259 -28.7144 82.1379)" class="st1" width="11.6" height="33.6"/>
</g>
</svg>
