<?xml version="1.0" encoding="utf-8"?>
<!-- Generator: Adobe Illustrator 24.1.0, SVG Export Plug-In . SVG Version: 6.00 Build 0)  -->
<svg version="1.1" id="Capa_1" xmlns="http://www.w3.org/2000/svg" xmlns:xlink="http://www.w3.org/1999/xlink" x="0px" y="0px"
	 viewBox="0 0 512 512" style="enable-background:new 0 0 512 512;" xml:space="preserve">
<style type="text/css">
	.st0{fill:#FF0000;}
</style>
<g>
	<path class="st0" d="M255-2.1C113.8-2.1-1,112.7-1,253.9s114.8,256,256,256s256-114.8,256-256S396.2-2.1,255-2.1z M240,83.9
		c0-8.3,6.7-15,15-15c8.3,0,15,6.7,15,15v120c0,8.3-6.7,15-15,15s-15-6.7-15-15V83.9z M255,418.9c-91,0-165-74-165-165
		c0-65.5,38.9-124.9,99-151.2c7.6-3.3,16.4,0.1,19.8,7.7s-0.1,16.4-7.7,19.8c-49.2,21.5-81,70.1-81,123.7c0,74.4,60.6,135,135,135
		s135-60.6,135-135c0-53.6-31.8-102.2-81-123.7c-7.6-3.3-11.1-12.2-7.7-19.8c3.3-7.6,12.2-11.1,19.8-7.7c60.1,26.3,99,85.6,99,151.2
		C420,344.9,346,418.9,255,418.9L255,418.9z"/>
</g>
</svg>
